<svg id="Layer_1" data-name="Layer 1" xmlns="http://www.w3.org/2000/svg" viewBox="0 0 132.61 132.61"><defs><style>.cls-1,.cls-2{fill:#005eac;}.cls-2,.cls-4{fill-rule:evenodd;}.cls-3{fill:#f7fafd;}.cls-4{fill:#fff;}</style></defs><title>icon_mdm-brazil</title><ellipse class="cls-1" cx="66.31" cy="66.87" rx="53.54" ry="53.56"/><path id="outer_circle" data-name="outer circle" class="cls-2" d="M68.3,1.9A66.31,66.31,0,1,1,2,68.21,66.31,66.31,0,0,1,68.3,1.9h0Zm0,4.34a62,62,0,1,1-62,62,62,62,0,0,1,62-62h0Z" transform="translate(-2 -1.9)"/><polygon class="cls-3" points="83.56 86.68 84.08 85.02 85.78 85.02 84.41 84 84.93 82.34 83.56 83.37 82.18 82.34 82.71 84 81.33 85.02 83.03 85.02 83.56 86.68"/><polygon class="cls-3" points="104.73 50.88 105.26 49.22 106.95 49.22 105.58 48.2 106.11 46.54 104.73 47.57 103.35 46.54 103.88 48.2 102.5 49.22 104.2 49.22 104.73 50.88"/><polygon class="cls-3" points="67.66 45.9 68.18 44.24 69.88 44.24 68.51 43.22 69.03 41.56 67.66 42.59 66.28 41.56 66.81 43.22 65.43 44.24 67.13 44.24 67.66 45.9"/><polygon class="cls-3" points="95.56 35.2 96 33.8 97.44 33.8 96.28 32.94 96.72 31.54 95.56 32.41 94.4 31.54 94.84 32.94 93.68 33.8 95.12 33.8 95.56 35.2"/><polygon class="cls-3" points="103.19 42.57 103.64 41.17 105.07 41.17 103.91 40.31 104.36 38.91 103.19 39.78 102.04 38.91 102.48 40.31 101.32 41.17 102.75 41.17 103.19 42.57"/><polygon class="cls-3" points="105.62 45.61 106.06 44.22 107.49 44.22 106.33 43.35 106.78 41.96 105.62 42.82 104.46 41.96 104.9 43.35 103.74 44.22 105.18 44.22 105.62 45.61"/><polygon class="cls-3" points="80.66 71.32 81.03 70.16 82.22 70.16 81.25 69.44 81.62 68.28 80.66 68.99 79.69 68.28 80.06 69.44 79.1 70.16 80.29 70.16 80.66 71.32"/><polygon class="cls-3" points="47.58 67.75 48 66.39 49.38 66.39 48.26 65.55 48.69 64.19 47.58 65.03 46.46 64.19 46.89 65.55 45.77 66.39 47.15 66.39 47.58 67.75"/><polygon class="cls-3" points="27.83 57.79 28.37 56.06 30.1 56.06 28.7 54.99 29.24 53.26 27.83 54.33 26.43 53.26 26.97 54.99 25.56 56.06 27.3 56.06 27.83 57.79"/><polygon class="cls-3" points="22.74 80.1 23.27 78.37 25.01 78.37 23.6 77.3 24.14 75.57 22.74 76.64 21.33 75.57 21.87 77.3 20.46 78.37 22.2 78.37 22.74 80.1"/><polygon class="cls-3" points="46.56 41.26 47.08 39.6 48.77 39.6 47.41 38.58 47.93 36.92 46.56 37.95 45.2 36.92 45.72 38.58 44.35 39.6 46.04 39.6 46.56 41.26"/><polygon class="cls-3" points="73.3 56.08 73.72 54.72 75.1 54.72 73.98 53.88 74.41 52.52 73.3 53.36 72.18 52.52 72.61 53.88 71.49 54.72 72.87 54.72 73.3 56.08"/><polygon class="cls-3" points="84.28 32.42 84.65 31.26 85.85 31.26 84.88 30.54 85.25 29.38 84.28 30.09 83.32 29.38 83.69 30.54 82.72 31.26 83.91 31.26 84.28 32.42"/><polygon class="cls-3" points="87.54 39.8 87.91 38.64 89.1 38.64 88.14 37.92 88.51 36.76 87.54 37.47 86.58 36.76 86.94 37.92 85.98 38.64 87.17 38.64 87.54 39.8"/><polygon class="cls-3" points="62.11 56.29 62.48 55.13 63.67 55.13 62.7 54.41 63.08 53.25 62.11 53.97 61.14 53.25 61.51 54.41 60.55 55.13 61.74 55.13 62.11 56.29"/><polygon class="cls-3" points="95.54 39.8 95.91 38.64 97.1 38.64 96.14 37.92 96.51 36.76 95.54 37.47 94.58 36.76 94.94 37.92 93.98 38.64 95.17 38.64 95.54 39.8"/><polygon class="cls-3" points="95.55 30.69 95.87 29.68 96.9 29.68 96.06 29.05 96.39 28.04 95.55 28.67 94.7 28.04 95.03 29.05 94.19 29.68 95.22 29.68 95.55 30.69"/><polygon class="cls-3" points="38.66 52.64 39.08 51.3 40.42 51.3 39.33 50.47 39.75 49.13 38.66 49.95 37.57 49.13 37.99 50.47 36.9 51.3 38.24 51.3 38.66 52.64"/><polygon class="cls-3" points="21.06 52.64 21.47 51.3 22.82 51.3 21.73 50.47 22.14 49.13 21.06 49.95 19.97 49.13 20.39 50.47 19.3 51.3 20.64 51.3 21.06 52.64"/><polygon class="cls-3" points="65.9 51.99 66.22 50.98 67.26 50.98 66.42 50.35 66.74 49.34 65.9 49.97 65.06 49.34 65.38 50.35 64.54 50.98 65.58 50.98 65.9 51.99"/><polygon class="cls-3" points="37.23 45.58 37.55 44.57 38.59 44.57 37.75 43.95 38.07 42.94 37.23 43.56 36.39 42.94 36.71 43.95 35.87 44.57 36.91 44.57 37.23 45.58"/><polygon class="cls-3" points="111.87 49.85 112.19 48.84 113.23 48.84 112.39 48.21 112.71 47.2 111.87 47.83 111.03 47.2 111.35 48.21 110.51 48.84 111.55 48.84 111.87 49.85"/><polygon class="cls-3" points="99.54 39.8 99.91 38.64 101.1 38.64 100.14 37.92 100.51 36.76 99.54 37.47 98.58 36.76 98.94 37.92 97.98 38.64 99.17 38.64 99.54 39.8"/><polygon class="cls-3" points="79.75 40.12 80.12 38.96 81.31 38.96 80.34 38.24 80.72 37.08 79.75 37.79 78.78 37.08 79.15 38.24 78.19 38.96 79.38 38.96 79.75 40.12"/><polygon class="cls-3" points="67.37 28.47 67.55 27.92 68.1 27.92 67.65 27.58 67.82 27.02 67.37 27.36 66.92 27.02 67.09 27.58 66.64 27.92 67.2 27.92 67.37 28.47"/><path id="bottom_white_half_circle" data-name="bottom white half circle" class="cls-4" d="M114.79,105.08q-1.81,2.28-3.84,4.38H55.47v4h51.24a59.33,59.33,0,0,1-84.89-8.36h93Z" transform="translate(-2 -1.9)"/><path id="white_middle_strioe" data-name="white middle strioe" class="cls-4" d="M127.4,62.82q0.24,2.66.24,5.39a59,59,0,0,1-10,32.9H18.92A59.06,59.06,0,0,1,9,68.21q0-2.73.25-5.39H127.4ZM93.73,71.29h9.76l3.76,14.6L111,71.29h9.72v24h-6.05V77L110,95.28h-5.48L99.8,77v18.3H93.73V93.88a7.06,7.06,0,0,1-1.81.76,17.08,17.08,0,0,1-4.42.65H76.44V77l-4.7,18.3H66.26L61.58,77v18.3H55.5v-24h9.75L69,85.88l3.75-14.6H87.5a13.22,13.22,0,0,1,5.26.89,9.28,9.28,0,0,1,1,.49V71.29h0ZM83.9,76.73v13.1h1.81A7.66,7.66,0,0,0,89,89.33a3.53,3.53,0,0,0,1.54-1.8,11.33,11.33,0,0,0,.56-4.17c0-2.54-.41-4.28-1.24-5.22a5.28,5.28,0,0,0-4.13-1.41H83.9Z" transform="translate(-2 -1.9)"/><polygon id="MDM_bg" data-name="MDM bg" class="cls-4" points="119.85 68.72 118.56 94.02 43.09 94.69 43.56 68.72 119.85 68.72"/><g id="MDM"><path class="cls-1" d="M39,74.37h9l3.49,12.8L55,74.37h9v21H58.39v-16l-4.34,16H49l-4.33-16v16H39v-21Z" transform="translate(-2 -1.9)"/><path class="cls-1" d="M66.84,74.37H77.06a12.88,12.88,0,0,1,4.88.77A7.9,7.9,0,0,1,85,77.37a9,9,0,0,1,1.76,3.37,14.84,14.84,0,0,1,.55,4.07A13.45,13.45,0,0,1,86.5,90a8.65,8.65,0,0,1-2.25,3.11,7.47,7.47,0,0,1-3.09,1.67,16.79,16.79,0,0,1-4.1.57H66.84v-21Zm6.87,4.76V90.63H75.4a7.44,7.44,0,0,0,3.06-.45,3.12,3.12,0,0,0,1.43-1.58,9.41,9.41,0,0,0,.52-3.65q0-3.34-1.15-4.58a5,5,0,0,0-3.82-1.23H73.72Z" transform="translate(-2 -1.9)"/><path class="cls-1" d="M89.2,74.37h9l3.49,12.8,3.46-12.8h9v21h-5.63v-16l-4.34,16H99.15l-4.33-16v16H89.2v-21Z" transform="translate(-2 -1.9)"/></g></svg>